{
    "asset" : {
        "generator" : "Khronos glTF Blender I/O v3.4.50",
        "version" : "2.0"
    },
    "scene" : 0,
    "scenes" : [
        {
            "name" : "Scene",
            "nodes" : [
                0
            ]
        }
    ],
    "nodes" : [
        {
            "mesh" : 0,
            "name" : "Shoe.001",
            "rotation" : [
                -0.06626217067241669,
                0.7138915061950684,
                0.06333347409963608,
                0.694231390953064
            ],
            "scale" : [
                6.399822235107422,
                6.39982271194458,
                6.399822235107422
            ],
            "translation" : [
                -0.31580209732055664,
                0.5918421745300293,
                -0.7896377444267273
            ]
        }
    ],
    "materials" : [
        {
            "doubleSided" : true,
            "name" : "Material.007",
            "pbrMetallicRoughness" : {}
        },
        {
            "doubleSided" : true,
            "name" : "Material.008",
            "pbrMetallicRoughness" : {}
        },
        {
            "doubleSided" : true,
            "name" : "Metal.001",
            "pbrMetallicRoughness" : {}
        },
        {
            "doubleSided" : true,
            "name" : "Material.006",
            "pbrMetallicRoughness" : {}
        }
    ],
    "meshes" : [
        {
            "name" : "Plane.007",
            "primitives" : [
                {
                    "attributes" : {
                        "COLOR_0" : 0,
                        "POSITION" : 1,
                        "TEXCOORD_0" : 2,
                        "TEXCOORD_1" : 3,
                        "TEXCOORD_2" : 4,
                        "NORMAL" : 5
                    },
                    "indices" : 6,
                    "material" : 0
                },
                {
                    "attributes" : {
                        "COLOR_0" : 7,
                        "POSITION" : 8,
                        "TEXCOORD_0" : 9,
                        "TEXCOORD_1" : 10,
                        "TEXCOORD_2" : 11,
                        "NORMAL" : 12
                    },
                    "indices" : 13,
                    "material" : 1
                },
                {
                    "attributes" : {
                        "COLOR_0" : 14,
                        "POSITION" : 15,
                        "TEXCOORD_0" : 16,
                        "TEXCOORD_1" : 17,
                        "TEXCOORD_2" : 18,
                        "NORMAL" : 19
                    },
                    "indices" : 20,
                    "material" : 2
                },
                {
                    "attributes" : {
                        "COLOR_0" : 21,
                        "POSITION" : 22,
                        "TEXCOORD_0" : 23,
                        "TEXCOORD_1" : 24,
                        "TEXCOORD_2" : 25,
                        "NORMAL" : 26
                    },
                    "indices" : 27,
                    "material" : 3
                }
            ]
        }
    ],
    "accessors" : [
        {
            "bufferView" : 0,
            "componentType" : 5123,
            "count" : 9636,
            "normalized" : true,
            "type" : "VEC4"
        },
        {
            "bufferView" : 1,
            "componentType" : 5126,
            "count" : 9636,
            "max" : [
                0.060465071350336075,
                0.09309510886669159,
                0.14481902122497559
            ],
            "min" : [
                -0.3163744807243347,
                -0.08069131523370743,
                -0.1511981040239334
            ],
            "type" : "VEC3"
        },
        {
            "bufferView" : 2,
            "componentType" : 5126,
            "count" : 9636,
            "type" : "VEC2"
        },
        {
            "bufferView" : 3,
            "componentType" : 5126,
            "count" : 9636,
            "type" : "VEC2"
        },
        {
            "bufferView" : 4,
            "componentType" : 5126,
            "count" : 9636,
            "type" : "VEC2"
        },
        {
            "bufferView" : 5,
            "componentType" : 5126,
            "count" : 9636,
            "type" : "VEC3"
        },
        {
            "bufferView" : 6,
            "componentType" : 5123,
            "count" : 48216,
            "type" : "SCALAR"
        },
        {
            "bufferView" : 7,
            "componentType" : 5123,
            "count" : 7108,
            "normalized" : true,
            "type" : "VEC4"
        },
        {
            "bufferView" : 8,
            "componentType" : 5126,
            "count" : 7108,
            "max" : [
                0.06666865199804306,
                -0.05132802575826645,
                0.14920194447040558
            ],
            "min" : [
                -0.3225780725479126,
                -0.09980335086584091,
                -0.1491592675447464
            ],
            "type" : "VEC3"
        },
        {
            "bufferView" : 9,
            "componentType" : 5126,
            "count" : 7108,
            "type" : "VEC2"
        },
        {
            "bufferView" : 10,
            "componentType" : 5126,
            "count" : 7108,
            "type" : "VEC2"
        },
        {
            "bufferView" : 11,
            "componentType" : 5126,
            "count" : 7108,
            "type" : "VEC2"
        },
        {
            "bufferView" : 12,
            "componentType" : 5126,
            "count" : 7108,
            "type" : "VEC3"
        },
        {
            "bufferView" : 13,
            "componentType" : 5123,
            "count" : 35592,
            "type" : "SCALAR"
        },
        {
            "bufferView" : 14,
            "componentType" : 5123,
            "count" : 1160,
            "normalized" : true,
            "type" : "VEC4"
        },
        {
            "bufferView" : 15,
            "componentType" : 5126,
            "count" : 1160,
            "max" : [
                0.035785552114248276,
                0.05683152750134468,
                0.04296894744038582
            ],
            "min" : [
                -0.2916949689388275,
                -0.014594385400414467,
                -0.02663421630859375
            ],
            "type" : "VEC3"
        },
        {
            "bufferView" : 16,
            "componentType" : 5126,
            "count" : 1160,
            "type" : "VEC2"
        },
        {
            "bufferView" : 17,
            "componentType" : 5126,
            "count" : 1160,
            "type" : "VEC2"
        },
        {
            "bufferView" : 18,
            "componentType" : 5126,
            "count" : 1160,
            "type" : "VEC2"
        },
        {
            "bufferView" : 19,
            "componentType" : 5126,
            "count" : 1160,
            "type" : "VEC3"
        },
        {
            "bufferView" : 20,
            "componentType" : 5123,
            "count" : 5016,
            "type" : "SCALAR"
        },
        {
            "bufferView" : 21,
            "componentType" : 5123,
            "count" : 9828,
            "normalized" : true,
            "type" : "VEC4"
        },
        {
            "bufferView" : 22,
            "componentType" : 5126,
            "count" : 9828,
            "max" : [
                0.04124287888407707,
                0.07188335806131363,
                0.04294206202030182
            ],
            "min" : [
                -0.2971522808074951,
                -0.013642598874866962,
                -0.027909718453884125
            ],
            "type" : "VEC3"
        },
        {
            "bufferView" : 23,
            "componentType" : 5126,
            "count" : 9828,
            "type" : "VEC2"
        },
        {
            "bufferView" : 24,
            "componentType" : 5126,
            "count" : 9828,
            "type" : "VEC2"
        },
        {
            "bufferView" : 25,
            "componentType" : 5126,
            "count" : 9828,
            "type" : "VEC2"
        },
        {
            "bufferView" : 26,
            "componentType" : 5126,
            "count" : 9828,
            "type" : "VEC3"
        },
        {
            "bufferView" : 27,
            "componentType" : 5123,
            "count" : 52224,
            "type" : "SCALAR"
        }
    ],
    "bufferViews" : [
        {
            "buffer" : 0,
            "byteLength" : 77088,
            "byteOffset" : 0,
            "target" : 34962
        },
        {
            "buffer" : 0,
            "byteLength" : 115632,
            "byteOffset" : 77088,
            "target" : 34962
        },
        {
            "buffer" : 0,
            "byteLength" : 77088,
            "byteOffset" : 192720,
            "target" : 34962
        },
        {
            "buffer" : 0,
            "byteLength" : 77088,
            "byteOffset" : 269808,
            "target" : 34962
        },
        {
            "buffer" : 0,
            "byteLength" : 77088,
            "byteOffset" : 346896,
            "target" : 34962
        },
        {
            "buffer" : 0,
            "byteLength" : 115632,
            "byteOffset" : 423984,
            "target" : 34962
        },
        {
            "buffer" : 0,
            "byteLength" : 96432,
            "byteOffset" : 539616,
            "target" : 34963
        },
        {
            "buffer" : 0,
            "byteLength" : 56864,
            "byteOffset" : 636048,
            "target" : 34962
        },
        {
            "buffer" : 0,
            "byteLength" : 85296,
            "byteOffset" : 692912,
            "target" : 34962
        },
        {
            "buffer" : 0,
            "byteLength" : 56864,
            "byteOffset" : 778208,
            "target" : 34962
        },
        {
            "buffer" : 0,
            "byteLength" : 56864,
            "byteOffset" : 835072,
            "target" : 34962
        },
        {
            "buffer" : 0,
            "byteLength" : 56864,
            "byteOffset" : 891936,
            "target" : 34962
        },
        {
            "buffer" : 0,
            "byteLength" : 85296,
            "byteOffset" : 948800,
            "target" : 34962
        },
        {
            "buffer" : 0,
            "byteLength" : 71184,
            "byteOffset" : 1034096,
            "target" : 34963
        },
        {
            "buffer" : 0,
            "byteLength" : 9280,
            "byteOffset" : 1105280,
            "target" : 34962
        },
        {
            "buffer" : 0,
            "byteLength" : 13920,
            "byteOffset" : 1114560,
            "target" : 34962
        },
        {
            "buffer" : 0,
            "byteLength" : 9280,
            "byteOffset" : 1128480,
            "target" : 34962
        },
        {
            "buffer" : 0,
            "byteLength" : 9280,
            "byteOffset" : 1137760,
            "target" : 34962
        },
        {
            "buffer" : 0,
            "byteLength" : 9280,
            "byteOffset" : 1147040,
            "target" : 34962
        },
        {
            "buffer" : 0,
            "byteLength" : 13920,
            "byteOffset" : 1156320,
            "target" : 34962
        },
        {
            "buffer" : 0,
            "byteLength" : 10032,
            "byteOffset" : 1170240,
            "target" : 34963
        },
        {
            "buffer" : 0,
            "byteLength" : 78624,
            "byteOffset" : 1180272,
            "target" : 34962
        },
        {
            "buffer" : 0,
            "byteLength" : 117936,
            "byteOffset" : 1258896,
            "target" : 34962
        },
        {
            "buffer" : 0,
            "byteLength" : 78624,
            "byteOffset" : 1376832,
            "target" : 34962
        },
        {
            "buffer" : 0,
            "byteLength" : 78624,
            "byteOffset" : 1455456,
            "target" : 34962
        },
        {
            "buffer" : 0,
            "byteLength" : 78624,
            "byteOffset" : 1534080,
            "target" : 34962
        },
        {
            "buffer" : 0,
            "byteLength" : 117936,
            "byteOffset" : 1612704,
            "target" : 34962
        },
        {
            "buffer" : 0,
            "byteLength" : 104448,
            "byteOffset" : 1730640,
            "target" : 34963
        }
    ],
    "buffers" : [
        {
            "byteLength" : 1835088,
            "uri" : "data:application/octet-stream;base64,"
        }
    ]
}
