{
    "asset" : {
        "generator" : "Khronos glTF Blender I/O v3.4.50",
        "version" : "2.0"
    },
    "extensionsUsed" : [
        "KHR_materials_specular",
        "KHR_materials_ior"
    ],
    "scene" : 0,
    "scenes" : [
        {
            "name" : "Scene",
            "nodes" : [
                0,
                1,
                2,
                3
            ]
        }
    ],
    "nodes" : [
        {
            "mesh" : 0,
            "name" : "Shoe_Part_13",
            "rotation" : [
                0,
                0.7071066498756409,
                0.70710688829422,
                1.3767873952019727e-07
            ],
            "scale" : [
                -0.02539999969303608,
                -0.02539999969303608,
                -0.02539999969303608
            ],
            "translation" : [
                -0.1314237415790558,
                0.10159583389759064,
                -0.3197843134403229
            ]
        },
        {
            "mesh" : 1,
            "name" : "Shoe_Part_13.001",
            "rotation" : [
                0,
                0.7071066498756409,
                0.70710688829422,
                1.3767873952019727e-07
            ],
            "scale" : [
                -0.02539999969303608,
                -0.02539999969303608,
                -0.02539999969303608
            ],
            "translation" : [
                4.664804935455322,
                0.10159583389759064,
                -0.3197843134403229
            ]
        },
        {
            "mesh" : 2,
            "name" : "Shoe_Part_13.002",
            "rotation" : [
                0,
                0.7071066498756409,
                0.70710688829422,
                1.3767873952019727e-07
            ],
            "scale" : [
                -0.02539999969303608,
                -0.02539999969303608,
                -0.02539999969303608
            ],
            "translation" : [
                -3.4703850746154785,
                0.10159583389759064,
                -0.3197843134403229
            ]
        },
        {
            "mesh" : 3,
            "name" : "Shoe_Part_13.003",
            "rotation" : [
                0,
                0.7071066498756409,
                0.70710688829422,
                1.3767873952019727e-07
            ],
            "scale" : [
                -0.02539999969303608,
                -0.02539999969303608,
                -0.02539999969303608
            ],
            "translation" : [
                -6.5966081619262695,
                0.10159583389759064,
                -0.3197843134403229
            ]
        }
    ],
    "materials" : [
        {
            "doubleSided" : true,
            "extensions" : {
                "KHR_materials_specular" : {
                    "specularColorFactor" : [
                        1.754804657301663,
                        1.754804657301663,
                        1.754804657301663
                    ]
                },
                "KHR_materials_ior" : {
                    "ior" : 1.4500000476837158
                }
            },
            "name" : "Material #4",
            "pbrMetallicRoughness" : {
                "baseColorFactor" : [
                    0.7019608020782471,
                    0.545098066329956,
                    0.4431372880935669,
                    1
                ],
                "roughnessFactor" : 0.8197498917579651
            }
        },
        {
            "doubleSided" : true,
            "extensions" : {
                "KHR_materials_specular" : {
                    "specularColorFactor" : [
                        2.229076151921157,
                        2.229076151921157,
                        2.229076151921157
                    ]
                },
                "KHR_materials_ior" : {
                    "ior" : 1.4500000476837158
                }
            },
            "name" : "Material #2",
            "pbrMetallicRoughness" : {
                "baseColorFactor" : [
                    0.2352941334247589,
                    0.2352941334247589,
                    0.2352941334247589,
                    1
                ],
                "roughnessFactor" : 0.8197498917579651
            }
        },
        {
            "doubleSided" : true,
            "extensions" : {
                "KHR_materials_specular" : {
                    "specularColorFactor" : [
                        1.754804657301663,
                        1.754804657301663,
                        1.754804657301663
                    ]
                },
                "KHR_materials_ior" : {
                    "ior" : 1.4500000476837158
                }
            },
            "name" : "Material #3",
            "pbrMetallicRoughness" : {
                "baseColorFactor" : [
                    0.3193005621433258,
                    0.04738198593258858,
                    0.8000000715255737,
                    1
                ],
                "roughnessFactor" : 0.8197498917579651
            }
        },
        {
            "doubleSided" : true,
            "name" : "pink",
            "pbrMetallicRoughness" : {
                "baseColorFactor" : [
                    0.34509703516960144,
                    0.07186309248209,
                    0.23892301321029663,
                    1
                ],
                "metallicFactor" : 0,
                "roughnessFactor" : 0.5
            }
        },
        {
            "doubleSided" : true,
            "name" : "brown",
            "pbrMetallicRoughness" : {
                "baseColorFactor" : [
                    0.3616287112236023,
                    0.09114102274179459,
                    0.0346745029091835,
                    1
                ],
                "metallicFactor" : 0,
                "roughnessFactor" : 0.5
            }
        },
        {
            "doubleSided" : true,
            "name" : "red",
            "pbrMetallicRoughness" : {
                "baseColorFactor" : [
                    1,
                    0.021597247570753098,
                    0.03476064279675484,
                    1
                ],
                "metallicFactor" : 0,
                "roughnessFactor" : 0.5
            }
        }
    ],
    "meshes" : [
        {
            "name" : "Mesh.013",
            "primitives" : [
                {
                    "attributes" : {
                        "POSITION" : 0,
                        "TEXCOORD_0" : 1,
                        "NORMAL" : 2
                    },
                    "indices" : 3,
                    "material" : 0
                },
                {
                    "attributes" : {
                        "POSITION" : 4,
                        "TEXCOORD_0" : 5,
                        "NORMAL" : 6
                    },
                    "indices" : 7,
                    "material" : 1
                },
                {
                    "attributes" : {
                        "POSITION" : 8,
                        "TEXCOORD_0" : 9,
                        "NORMAL" : 10
                    },
                    "indices" : 11,
                    "material" : 2
                }
            ]
        },
        {
            "name" : "Mesh.014",
            "primitives" : [
                {
                    "attributes" : {
                        "POSITION" : 12,
                        "TEXCOORD_0" : 13,
                        "NORMAL" : 14
                    },
                    "indices" : 15,
                    "material" : 3
                }
            ]
        },
        {
            "name" : "Mesh.015",
            "primitives" : [
                {
                    "attributes" : {
                        "POSITION" : 16,
                        "TEXCOORD_0" : 17,
                        "NORMAL" : 18
                    },
                    "indices" : 15,
                    "material" : 4
                }
            ]
        },
        {
            "name" : "Mesh.016",
            "primitives" : [
                {
                    "attributes" : {
                        "POSITION" : 19,
                        "TEXCOORD_0" : 20,
                        "NORMAL" : 21
                    },
                    "indices" : 15,
                    "material" : 5
                }
            ]
        }
    ],
    "accessors" : [
        {
            "bufferView" : 0,
            "componentType" : 5126,
            "count" : 1066,
            "max" : [
                33.69080352783203,
                10.166549682617188,
                3.7509829998016357
            ],
            "min" : [
                -23.33395004272461,
                -35.3464241027832,
                -48.07759094238281
            ],
            "type" : "VEC3"
        },
        {
            "bufferView" : 1,
            "componentType" : 5126,
            "count" : 1066,
            "type" : "VEC2"
        },
        {
            "bufferView" : 2,
            "componentType" : 5126,
            "count" : 1066,
            "type" : "VEC3"
        },
        {
            "bufferView" : 3,
            "componentType" : 5123,
            "count" : 3492,
            "type" : "SCALAR"
        },
        {
            "bufferView" : 4,
            "componentType" : 5126,
            "count" : 2974,
            "max" : [
                34.11756896972656,
                10.629621505737305,
                4.165660858154297
            ],
            "min" : [
                -23.76923370361328,
                -35.809486389160156,
                -48.29290008544922
            ],
            "type" : "VEC3"
        },
        {
            "bufferView" : 5,
            "componentType" : 5126,
            "count" : 2974,
            "type" : "VEC2"
        },
        {
            "bufferView" : 6,
            "componentType" : 5126,
            "count" : 2974,
            "type" : "VEC3"
        },
        {
            "bufferView" : 7,
            "componentType" : 5123,
            "count" : 6720,
            "type" : "SCALAR"
        },
        {
            "bufferView" : 8,
            "componentType" : 5126,
            "count" : 500,
            "max" : [
                29.60516357421875,
                9.80920696258545,
                4.330615997314453
            ],
            "min" : [
                -23.253820419311523,
                -34.989070892333984,
                -24.36615753173828
            ],
            "type" : "VEC3"
        },
        {
            "bufferView" : 9,
            "componentType" : 5126,
            "count" : 500,
            "type" : "VEC2"
        },
        {
            "bufferView" : 10,
            "componentType" : 5126,
            "count" : 500,
            "type" : "VEC3"
        },
        {
            "bufferView" : 11,
            "componentType" : 5123,
            "count" : 1320,
            "type" : "SCALAR"
        },
        {
            "bufferView" : 12,
            "componentType" : 5126,
            "count" : 4540,
            "max" : [
                34.11756896972656,
                10.629621505737305,
                4.330615997314453
            ],
            "min" : [
                -23.76923370361328,
                -35.809486389160156,
                -48.29290008544922
            ],
            "type" : "VEC3"
        },
        {
            "bufferView" : 13,
            "componentType" : 5126,
            "count" : 4540,
            "type" : "VEC2"
        },
        {
            "bufferView" : 14,
            "componentType" : 5126,
            "count" : 4540,
            "type" : "VEC3"
        },
        {
            "bufferView" : 15,
            "componentType" : 5123,
            "count" : 11532,
            "type" : "SCALAR"
        },
        {
            "bufferView" : 16,
            "componentType" : 5126,
            "count" : 4540,
            "max" : [
                34.11756896972656,
                10.629621505737305,
                4.330615997314453
            ],
            "min" : [
                -23.76923370361328,
                -35.809486389160156,
                -48.29290008544922
            ],
            "type" : "VEC3"
        },
        {
            "bufferView" : 17,
            "componentType" : 5126,
            "count" : 4540,
            "type" : "VEC2"
        },
        {
            "bufferView" : 18,
            "componentType" : 5126,
            "count" : 4540,
            "type" : "VEC3"
        },
        {
            "bufferView" : 19,
            "componentType" : 5126,
            "count" : 4540,
            "max" : [
                34.11756896972656,
                10.629621505737305,
                4.330615997314453
            ],
            "min" : [
                -23.76923370361328,
                -35.809486389160156,
                -48.29290008544922
            ],
            "type" : "VEC3"
        },
        {
            "bufferView" : 20,
            "componentType" : 5126,
            "count" : 4540,
            "type" : "VEC2"
        },
        {
            "bufferView" : 21,
            "componentType" : 5126,
            "count" : 4540,
            "type" : "VEC3"
        }
    ],
    "bufferViews" : [
        {
            "buffer" : 0,
            "byteLength" : 12792,
            "byteOffset" : 0,
            "target" : 34962
        },
        {
            "buffer" : 0,
            "byteLength" : 8528,
            "byteOffset" : 12792,
            "target" : 34962
        },
        {
            "buffer" : 0,
            "byteLength" : 12792,
            "byteOffset" : 21320,
            "target" : 34962
        },
        {
            "buffer" : 0,
            "byteLength" : 6984,
            "byteOffset" : 34112,
            "target" : 34963
        },
        {
            "buffer" : 0,
            "byteLength" : 35688,
            "byteOffset" : 41096,
            "target" : 34962
        },
        {
            "buffer" : 0,
            "byteLength" : 23792,
            "byteOffset" : 76784,
            "target" : 34962
        },
        {
            "buffer" : 0,
            "byteLength" : 35688,
            "byteOffset" : 100576,
            "target" : 34962
        },
        {
            "buffer" : 0,
            "byteLength" : 13440,
            "byteOffset" : 136264,
            "target" : 34963
        },
        {
            "buffer" : 0,
            "byteLength" : 6000,
            "byteOffset" : 149704,
            "target" : 34962
        },
        {
            "buffer" : 0,
            "byteLength" : 4000,
            "byteOffset" : 155704,
            "target" : 34962
        },
        {
            "buffer" : 0,
            "byteLength" : 6000,
            "byteOffset" : 159704,
            "target" : 34962
        },
        {
            "buffer" : 0,
            "byteLength" : 2640,
            "byteOffset" : 165704,
            "target" : 34963
        },
        {
            "buffer" : 0,
            "byteLength" : 54480,
            "byteOffset" : 168344,
            "target" : 34962
        },
        {
            "buffer" : 0,
            "byteLength" : 36320,
            "byteOffset" : 222824,
            "target" : 34962
        },
        {
            "buffer" : 0,
            "byteLength" : 54480,
            "byteOffset" : 259144,
            "target" : 34962
        },
        {
            "buffer" : 0,
            "byteLength" : 23064,
            "byteOffset" : 313624,
            "target" : 34963
        },
        {
            "buffer" : 0,
            "byteLength" : 54480,
            "byteOffset" : 336688,
            "target" : 34962
        },
        {
            "buffer" : 0,
            "byteLength" : 36320,
            "byteOffset" : 391168,
            "target" : 34962
        },
        {
            "buffer" : 0,
            "byteLength" : 54480,
            "byteOffset" : 427488,
            "target" : 34962
        },
        {
            "buffer" : 0,
            "byteLength" : 54480,
            "byteOffset" : 481968,
            "target" : 34962
        },
        {
            "buffer" : 0,
            "byteLength" : 36320,
            "byteOffset" : 536448,
            "target" : 34962
        },
        {
            "buffer" : 0,
            "byteLength" : 54480,
            "byteOffset" : 572768,
            "target" : 34962
        }
    ],
    "buffers" : [
        {
            "byteLength" : 627248,
            "uri" : "data:application/octet-stream;base64,"
        }
    ]
}
