{
    "asset" : {
        "generator" : "Khronos glTF Blender I/O v3.4.50",
        "version" : "2.0"
    },
    "scene" : 0,
    "scenes" : [
        {
            "name" : "Scene",
            "nodes" : [
                0
            ]
        }
    ],
    "nodes" : [
        {
            "mesh" : 0,
            "name" : "Shoe.002",
            "rotation" : [
                -0.06626217067241669,
                0.7138915061950684,
                0.06333347409963608,
                0.694231390953064
            ],
            "scale" : [
                6.399822235107422,
                6.39982271194458,
                6.399822235107422
            ],
            "translation" : [
                0.20345258712768555,
                1.0567772388458252,
                -1.1481773853302002
            ]
        }
    ],
    "materials" : [
        {
            "doubleSided" : true,
            "name" : "Material.004",
            "pbrMetallicRoughness" : {
                "baseColorFactor" : [
                    0.8000000715255737,
                    0.3606601655483246,
                    0.3052206337451935,
                    1
                ],
                "metallicFactor" : 0,
                "roughnessFactor" : 0.5
            }
        }
    ],
    "meshes" : [
        {
            "name" : "Plane.001",
            "primitives" : [
                {
                    "attributes" : {
                        "COLOR_0" : 0,
                        "POSITION" : 1,
                        "TEXCOORD_0" : 2,
                        "TEXCOORD_1" : 3,
                        "TEXCOORD_2" : 4,
                        "NORMAL" : 5
                    },
                    "indices" : 6,
                    "material" : 0
                }
            ]
        }
    ],
    "accessors" : [
        {
            "bufferView" : 0,
            "componentType" : 5123,
            "count" : 27300,
            "normalized" : true,
            "type" : "VEC4"
        },
        {
            "bufferView" : 1,
            "componentType" : 5126,
            "count" : 27300,
            "max" : [
                0.06666865199804306,
                0.09309510886669159,
                0.14920194447040558
            ],
            "min" : [
                -0.3225780725479126,
                -0.09980335086584091,
                -0.1511981040239334
            ],
            "type" : "VEC3"
        },
        {
            "bufferView" : 2,
            "componentType" : 5126,
            "count" : 27300,
            "type" : "VEC2"
        },
        {
            "bufferView" : 3,
            "componentType" : 5126,
            "count" : 27300,
            "type" : "VEC2"
        },
        {
            "bufferView" : 4,
            "componentType" : 5126,
            "count" : 27300,
            "type" : "VEC2"
        },
        {
            "bufferView" : 5,
            "componentType" : 5126,
            "count" : 27300,
            "type" : "VEC3"
        },
        {
            "bufferView" : 6,
            "componentType" : 5123,
            "count" : 141048,
            "type" : "SCALAR"
        }
    ],
    "bufferViews" : [
        {
            "buffer" : 0,
            "byteLength" : 218400,
            "byteOffset" : 0,
            "target" : 34962
        },
        {
            "buffer" : 0,
            "byteLength" : 327600,
            "byteOffset" : 218400,
            "target" : 34962
        },
        {
            "buffer" : 0,
            "byteLength" : 218400,
            "byteOffset" : 546000,
            "target" : 34962
        },
        {
            "buffer" : 0,
            "byteLength" : 218400,
            "byteOffset" : 764400,
            "target" : 34962
        },
        {
            "buffer" : 0,
            "byteLength" : 218400,
            "byteOffset" : 982800,
            "target" : 34962
        },
        {
            "buffer" : 0,
            "byteLength" : 327600,
            "byteOffset" : 1201200,
            "target" : 34962
        },
        {
            "buffer" : 0,
            "byteLength" : 282096,
            "byteOffset" : 1528800,
            "target" : 34963
        }
    ],
    "buffers" : [
        {
            "byteLength" : 1810896,
            "uri" : "data:application/octet-stream;base64,"
        }
    ]
}
