{
    "asset" : {
        "generator" : "Khronos glTF Blender I/O v3.4.50",
        "version" : "2.0"
    },
    "scene" : 0,
    "scenes" : [
        {
            "name" : "Scene",
            "nodes" : [
                0,
                1,
                2,
                3,
                4,
                5
            ]
        }
    ],
    "nodes" : [
        {
            "mesh" : 0,
            "name" : "Structure",
            "scale" : [
                1,
                10,
                40
            ],
            "translation" : [
                0,
                1.5097479820251465,
                0
            ]
        },
        {
            "mesh" : 1,
            "name" : "Roof",
            "translation" : [
                0,
                4.239160537719727,
                0
            ]
        },
        {
            "mesh" : 2,
            "name" : "Ground",
            "translation" : [
                19.058202743530273,
                0,
                -0.6553611755371094
            ]
        },
        {
            "mesh" : 3,
            "name" : "LeftWIndow",
            "scale" : [
                1,
                147.12855529785156,
                205.61260986328125
            ],
            "translation" : [
                8.017189025878906,
                1.583766222000122,
                3.722273349761963
            ]
        },
        {
            "mesh" : 4,
            "name" : "RightWIndow",
            "scale" : [
                1,
                147.12855529785156,
                205.61260986328125
            ],
            "translation" : [
                8.017189025878906,
                1.583766222000122,
                -3.719785451889038
            ]
        },
        {
            "mesh" : 5,
            "name" : "Sign",
            "rotation" : [
                0.5,
                0.5,
                -0.5,
                0.5
            ],
            "translation" : [
                8.957504272460938,
                4.043473243713379,
                1.3220458030700684
            ]
        }
    ],
    "materials" : [
        {
            "doubleSided" : true,
            "name" : "Material.006",
            "pbrMetallicRoughness" : {
                "baseColorFactor" : [
                    0.23301318287849426,
                    0.23301318287849426,
                    0.23301318287849426,
                    1
                ],
                "metallicFactor" : 0,
                "roughnessFactor" : 0.5
            }
        },
        {
            "doubleSided" : true,
            "name" : "Material.005",
            "pbrMetallicRoughness" : {
                "baseColorFactor" : [
                    0.009017725475132465,
                    0.009017725475132465,
                    0.009017725475132465,
                    1
                ],
                "metallicFactor" : 0,
                "roughnessFactor" : 0.8166666626930237
            }
        },
        {
            "doubleSided" : true,
            "name" : "Material.004",
            "pbrMetallicRoughness" : {
                "baseColorTexture" : {
                    "index" : 0
                },
                "metallicFactor" : 0
            }
        },
        {
            "alphaMode" : "BLEND",
            "doubleSided" : true,
            "name" : "Material.010",
            "pbrMetallicRoughness" : {}
        },
        {
            "alphaMode" : "BLEND",
            "doubleSided" : true,
            "name" : "Material.009",
            "pbrMetallicRoughness" : {}
        },
        {
            "doubleSided" : true,
            "name" : "Material.011",
            "pbrMetallicRoughness" : {
                "baseColorFactor" : [
                    0.19045625627040863,
                    0.22940672934055328,
                    0.8000000715255737,
                    1
                ],
                "metallicFactor" : 0.5,
                "roughnessFactor" : 0.5
            }
        }
    ],
    "meshes" : [
        {
            "name" : "Cube.001",
            "primitives" : [
                {
                    "attributes" : {
                        "POSITION" : 0,
                        "TEXCOORD_0" : 1,
                        "NORMAL" : 2
                    },
                    "indices" : 3,
                    "material" : 0
                }
            ]
        },
        {
            "name" : "Cube.002",
            "primitives" : [
                {
                    "attributes" : {
                        "POSITION" : 4,
                        "TEXCOORD_0" : 5,
                        "NORMAL" : 6
                    },
                    "indices" : 7,
                    "material" : 1
                }
            ]
        },
        {
            "name" : "Plane",
            "primitives" : [
                {
                    "attributes" : {
                        "POSITION" : 8,
                        "TEXCOORD_0" : 9,
                        "NORMAL" : 10
                    },
                    "indices" : 11,
                    "material" : 2
                }
            ]
        },
        {
            "name" : "Cube.003",
            "primitives" : [
                {
                    "attributes" : {
                        "POSITION" : 12,
                        "TEXCOORD_0" : 13,
                        "NORMAL" : 14
                    },
                    "indices" : 15,
                    "material" : 3
                }
            ]
        },
        {
            "name" : "Cube.004",
            "primitives" : [
                {
                    "attributes" : {
                        "POSITION" : 16,
                        "TEXCOORD_0" : 17,
                        "NORMAL" : 18
                    },
                    "indices" : 15,
                    "material" : 4
                }
            ]
        },
        {
            "name" : "Curve",
            "primitives" : [
                {
                    "attributes" : {
                        "POSITION" : 19,
                        "TEXCOORD_0" : 20,
                        "NORMAL" : 21
                    },
                    "indices" : 22,
                    "material" : 5
                }
            ]
        }
    ],
    "textures" : [
        {
            "sampler" : 0,
            "source" : 0
        }
    ],
    "images" : [
        {
            "bufferView" : 12,
            "mimeType" : "image/jpeg",
            "name" : "parking"
        }
    ],
    "accessors" : [
        {
            "bufferView" : 0,
            "componentType" : 5126,
            "count" : 4563,
            "max" : [
                8.413500785827637,
                0.2518619894981384,
                0.15000000596046448
            ],
            "min" : [
                -0.15000000596046448,
                -0.16597479581832886,
                -0.15000000596046448
            ],
            "type" : "VEC3"
        },
        {
            "bufferView" : 1,
            "componentType" : 5126,
            "count" : 4563,
            "type" : "VEC2"
        },
        {
            "bufferView" : 2,
            "componentType" : 5126,
            "count" : 4563,
            "type" : "VEC3"
        },
        {
            "bufferView" : 3,
            "componentType" : 5123,
            "count" : 15972,
            "type" : "SCALAR"
        },
        {
            "bufferView" : 4,
            "componentType" : 5126,
            "count" : 64,
            "max" : [
                8.876132011413574,
                0.25,
                6.25
            ],
            "min" : [
                -0.25,
                -0.25,
                -6.25
            ],
            "type" : "VEC3"
        },
        {
            "bufferView" : 5,
            "componentType" : 5126,
            "count" : 64,
            "type" : "VEC2"
        },
        {
            "bufferView" : 6,
            "componentType" : 5126,
            "count" : 64,
            "type" : "VEC3"
        },
        {
            "bufferView" : 7,
            "componentType" : 5123,
            "count" : 132,
            "type" : "SCALAR"
        },
        {
            "bufferView" : 8,
            "componentType" : 5126,
            "count" : 6,
            "max" : [
                20,
                0,
                20
            ],
            "min" : [
                -20,
                0,
                -20
            ],
            "type" : "VEC3"
        },
        {
            "bufferView" : 9,
            "componentType" : 5126,
            "count" : 6,
            "type" : "VEC2"
        },
        {
            "bufferView" : 10,
            "componentType" : 5126,
            "count" : 6,
            "type" : "VEC3"
        },
        {
            "bufferView" : 11,
            "componentType" : 5123,
            "count" : 12,
            "type" : "SCALAR"
        },
        {
            "bufferView" : 13,
            "componentType" : 5126,
            "count" : 24,
            "max" : [
                0.009999999776482582,
                0.009999999776482582,
                0.009999999776482582
            ],
            "min" : [
                -0.009999999776482582,
                -0.009999999776482582,
                -0.009999999776482582
            ],
            "type" : "VEC3"
        },
        {
            "bufferView" : 14,
            "componentType" : 5126,
            "count" : 24,
            "type" : "VEC2"
        },
        {
            "bufferView" : 15,
            "componentType" : 5126,
            "count" : 24,
            "type" : "VEC3"
        },
        {
            "bufferView" : 16,
            "componentType" : 5123,
            "count" : 36,
            "type" : "SCALAR"
        },
        {
            "bufferView" : 17,
            "componentType" : 5126,
            "count" : 24,
            "max" : [
                0.009999999776482582,
                0.009999999776482582,
                0.009999999776482582
            ],
            "min" : [
                -0.009999999776482582,
                -0.009999999776482582,
                -0.009999999776482582
            ],
            "type" : "VEC3"
        },
        {
            "bufferView" : 18,
            "componentType" : 5126,
            "count" : 24,
            "type" : "VEC2"
        },
        {
            "bufferView" : 19,
            "componentType" : 5126,
            "count" : 24,
            "type" : "VEC3"
        },
        {
            "bufferView" : 20,
            "componentType" : 5126,
            "count" : 4862,
            "max" : [
                2.986266613006592,
                0.05000000074505806,
                0.05913545936346054
            ],
            "min" : [
                -0.010302618145942688,
                -0.05000000074505806,
                -0.7411319017410278
            ],
            "type" : "VEC3"
        },
        {
            "bufferView" : 21,
            "componentType" : 5126,
            "count" : 4862,
            "type" : "VEC2"
        },
        {
            "bufferView" : 22,
            "componentType" : 5126,
            "count" : 4862,
            "type" : "VEC3"
        },
        {
            "bufferView" : 23,
            "componentType" : 5123,
            "count" : 20280,
            "type" : "SCALAR"
        }
    ],
    "bufferViews" : [
        {
            "buffer" : 0,
            "byteLength" : 54756,
            "byteOffset" : 0,
            "target" : 34962
        },
        {
            "buffer" : 0,
            "byteLength" : 36504,
            "byteOffset" : 54756,
            "target" : 34962
        },
        {
            "buffer" : 0,
            "byteLength" : 54756,
            "byteOffset" : 91260,
            "target" : 34962
        },
        {
            "buffer" : 0,
            "byteLength" : 31944,
            "byteOffset" : 146016,
            "target" : 34963
        },
        {
            "buffer" : 0,
            "byteLength" : 768,
            "byteOffset" : 177960,
            "target" : 34962
        },
        {
            "buffer" : 0,
            "byteLength" : 512,
            "byteOffset" : 178728,
            "target" : 34962
        },
        {
            "buffer" : 0,
            "byteLength" : 768,
            "byteOffset" : 179240,
            "target" : 34962
        },
        {
            "buffer" : 0,
            "byteLength" : 264,
            "byteOffset" : 180008,
            "target" : 34963
        },
        {
            "buffer" : 0,
            "byteLength" : 72,
            "byteOffset" : 180272,
            "target" : 34962
        },
        {
            "buffer" : 0,
            "byteLength" : 48,
            "byteOffset" : 180344,
            "target" : 34962
        },
        {
            "buffer" : 0,
            "byteLength" : 72,
            "byteOffset" : 180392,
            "target" : 34962
        },
        {
            "buffer" : 0,
            "byteLength" : 24,
            "byteOffset" : 180464,
            "target" : 34963
        },
        {
            "buffer" : 0,
            "byteLength" : 39252,
            "byteOffset" : 180488
        },
        {
            "buffer" : 0,
            "byteLength" : 288,
            "byteOffset" : 219740,
            "target" : 34962
        },
        {
            "buffer" : 0,
            "byteLength" : 192,
            "byteOffset" : 220028,
            "target" : 34962
        },
        {
            "buffer" : 0,
            "byteLength" : 288,
            "byteOffset" : 220220,
            "target" : 34962
        },
        {
            "buffer" : 0,
            "byteLength" : 72,
            "byteOffset" : 220508,
            "target" : 34963
        },
        {
            "buffer" : 0,
            "byteLength" : 288,
            "byteOffset" : 220580,
            "target" : 34962
        },
        {
            "buffer" : 0,
            "byteLength" : 192,
            "byteOffset" : 220868,
            "target" : 34962
        },
        {
            "buffer" : 0,
            "byteLength" : 288,
            "byteOffset" : 221060,
            "target" : 34962
        },
        {
            "buffer" : 0,
            "byteLength" : 58344,
            "byteOffset" : 221348,
            "target" : 34962
        },
        {
            "buffer" : 0,
            "byteLength" : 38896,
            "byteOffset" : 279692,
            "target" : 34962
        },
        {
            "buffer" : 0,
            "byteLength" : 58344,
            "byteOffset" : 318588,
            "target" : 34962
        },
        {
            "buffer" : 0,
            "byteLength" : 40560,
            "byteOffset" : 376932,
            "target" : 34963
        }
    ],
    "samplers" : [
        {
            "magFilter" : 9729,
            "minFilter" : 9987
        }
    ],
    "buffers" : [
        {
            "byteLength" : 417492,
            "uri" : "data:application/octet-stream;base64,"
        }
    ]
}
